#VRML V2.0 utf8
# Generated by hardware/tools/gen_3d_models.py - do not edit by hand.
# Body outline taken from the footprint's own F.Fab layer; height from the
# datasheet. Units are 0.1 inch, which is what KiCad's VRML importer expects
# when the model is placed at scale 1.
Shape {
  appearance Appearance {
    material Material {
      diffuseColor 0.150 0.150 0.170
      specularColor 0.10 0.10 0.10
      shininess 0.25
    }
  }
  geometry IndexedFaceSet {
    coord Coordinate {
      point [
        -0.3937 0.0000 -0.3937,
        0.3937 0.0000 -0.3937,
        0.3937 0.0000 0.3937,
        -0.3937 0.0000 0.3937,
        -0.3937 0.2953 -0.3937,
        0.3937 0.2953 -0.3937,
        0.3937 0.2953 0.3937,
        -0.3937 0.2953 0.3937,
      ]
    }
    coordIndex [
      0 1 2 3 -1
      4 7 6 5 -1
      0 4 5 1 -1
      1 5 6 2 -1
      2 6 7 3 -1
      3 7 4 0 -1
    ]
    solid TRUE
  }
}
